<?xml version="1.0" encoding="UTF-8" standalone="no"?>
<!DOCTYPE svg PUBLIC "-//W3C//DTD SVG 1.1//EN"
 "http://www.w3.org/Graphics/SVG/1.1/DTD/svg11.dtd">
<!-- Generated by graphviz version 12.1.2 (0)
 -->
<!-- Title: receive_from_server Pages: 1 -->
<svg width="571pt" height="66pt"
 viewBox="0.00 0.00 571.00 66.00" xmlns="http://www.w3.org/2000/svg" xmlns:xlink="http://www.w3.org/1999/xlink">
<g id="graph0" class="graph" transform="scale(1 1) rotate(0) translate(4 62)">
<title>receive_from_server</title>
<!-- Node1 -->
<g id="Node000001" class="node">
<title>Node1</title>
<g id="a_Node000001"><a xlink:title=" ">
<polygon fill="#999999" stroke="#666666" points="563,-39 458.5,-39 458.5,-19 563,-19 563,-39"/>
<text text-anchor="middle" x="510.75" y="-25.5" font-family="Helvetica,sans-Serif" font-size="10.00">receive_from_server</text>
</a>
</g>
</g>
<!-- Node2 -->
<g id="Node000002" class="node">
<title>Node2</title>
<g id="a_Node000002"><a xlink:href="client_8c.html#a299ed05c2ff0f97eebe387b18a2425a4" target="_top" xlink:title=" ">
<polygon fill="white" stroke="#666666" points="422.5,-39 345.75,-39 345.75,-19 422.5,-19 422.5,-39"/>
<text text-anchor="middle" x="384.12" y="-25.5" font-family="Helvetica,sans-Serif" font-size="10.00">receive_guard</text>
</a>
</g>
</g>
<!-- Node1&#45;&gt;Node2 -->
<g id="edge1_Node000001_Node000002" class="edge">
<title>Node1&#45;&gt;Node2</title>
<g id="a_edge1_Node000001_Node000002"><a xlink:title=" ">
<path fill="none" stroke="#63b8ff" d="M447.05,-29C438.73,-29 430.42,-29 422.71,-29"/>
<polygon fill="#63b8ff" stroke="#63b8ff" points="446.83,-32.5 456.83,-29 446.83,-25.5 446.83,-32.5"/>
</a>
</g>
</g>
<!-- Node3 -->
<g id="Node000003" class="node">
<title>Node3</title>
<g id="a_Node000003"><a xlink:href="server_8c.html#a47ee33e275bfec2a3709e4c72894eb5d" target="_top" xlink:title=" ">
<polygon fill="white" stroke="#666666" points="309.75,-58 235.25,-58 235.25,-38 309.75,-38 309.75,-58"/>
<text text-anchor="middle" x="272.5" y="-44.5" font-family="Helvetica,sans-Serif" font-size="10.00">accept_guard</text>
</a>
</g>
</g>
<!-- Node2&#45;&gt;Node3 -->
<g id="edge2_Node000002_Node000003" class="edge">
<title>Node2&#45;&gt;Node3</title>
<g id="a_edge2_Node000002_Node000003"><a xlink:title=" ">
<path fill="none" stroke="#63b8ff" d="M334.18,-37.48C326.12,-38.88 317.88,-40.31 310.18,-41.64"/>
<polygon fill="#63b8ff" stroke="#63b8ff" points="334.65,-40.95 343.91,-35.8 333.46,-34.06 334.65,-40.95"/>
</a>
</g>
</g>
<!-- Node6 -->
<g id="Node000006" class="node">
<title>Node6</title>
<g id="a_Node000006"><a xlink:href="client_2main_8c.html#ae66f6b31b5ad750f1fe042a706a4e3d4" target="_top" xlink:title=" ">
<polygon fill="white" stroke="#666666" points="291,-20 254,-20 254,0 291,0 291,-20"/>
<text text-anchor="middle" x="272.5" y="-6.5" font-family="Helvetica,sans-Serif" font-size="10.00">main</text>
</a>
</g>
</g>
<!-- Node2&#45;&gt;Node6 -->
<g id="edge5_Node000002_Node000006" class="edge">
<title>Node2&#45;&gt;Node6</title>
<g id="a_edge5_Node000002_Node000006"><a xlink:title=" ">
<path fill="none" stroke="#63b8ff" d="M334.4,-20.56C319.05,-17.89 303.05,-15.12 291.3,-13.09"/>
<polygon fill="#63b8ff" stroke="#63b8ff" points="333.46,-23.94 343.91,-22.2 334.65,-17.05 333.46,-23.94"/>
</a>
</g>
</g>
<!-- Node4 -->
<g id="Node000004" class="node">
<title>Node4</title>
<g id="a_Node000004"><a xlink:href="server_8c.html#aa63a0039312dd8d0bb8dca972264f1c0" target="_top" xlink:title=" ">
<polygon fill="white" stroke="#666666" points="199.25,-58 73,-58 73,-38 199.25,-38 199.25,-58"/>
<text text-anchor="middle" x="136.12" y="-44.5" font-family="Helvetica,sans-Serif" font-size="10.00">accept_client_connection</text>
</a>
</g>
</g>
<!-- Node3&#45;&gt;Node4 -->
<g id="edge3_Node000003_Node000004" class="edge">
<title>Node3&#45;&gt;Node4</title>
<g id="a_edge3_Node000003_Node000004"><a xlink:title=" ">
<path fill="none" stroke="#63b8ff" d="M223.42,-48C215.71,-48 207.63,-48 199.64,-48"/>
<polygon fill="#63b8ff" stroke="#63b8ff" points="223.27,-51.5 233.27,-48 223.27,-44.5 223.27,-51.5"/>
</a>
</g>
</g>
<!-- Node5 -->
<g id="Node000005" class="node">
<title>Node5</title>
<g id="a_Node000005"><a xlink:href="server_2main_8c.html#ae66f6b31b5ad750f1fe042a706a4e3d4" target="_top" xlink:title=" ">
<polygon fill="white" stroke="#666666" points="37,-58 0,-58 0,-38 37,-38 37,-58"/>
<text text-anchor="middle" x="18.5" y="-44.5" font-family="Helvetica,sans-Serif" font-size="10.00">main</text>
</a>
</g>
</g>
<!-- Node4&#45;&gt;Node5 -->
<g id="edge4_Node000004_Node000005" class="edge">
<title>Node4&#45;&gt;Node5</title>
<g id="a_edge4_Node000004_Node000005"><a xlink:title=" ">
<path fill="none" stroke="#63b8ff" d="M61.17,-48C52.33,-48 44.05,-48 37.23,-48"/>
<polygon fill="#63b8ff" stroke="#63b8ff" points="61.06,-51.5 71.06,-48 61.06,-44.5 61.06,-51.5"/>
</a>
</g>
</g>
</g>
</svg>
