<?xml version="1.0" encoding="UTF-8" standalone="no"?>
<!DOCTYPE svg PUBLIC "-//W3C//DTD SVG 1.1//EN"
 "http://www.w3.org/Graphics/SVG/1.1/DTD/svg11.dtd">
<!-- Generated by graphviz version 12.1.2 (0)
 -->
<!-- Title: main Pages: 1 -->
<svg width="357pt" height="268pt"
 viewBox="0.00 0.00 356.75 268.00" xmlns="http://www.w3.org/2000/svg" xmlns:xlink="http://www.w3.org/1999/xlink">

<svg id="main" version="1.1" xmlns="http://www.w3.org/2000/svg" xmlns:xlink="http://www.w3.org/1999/xlink" xml:space="preserve">

<style type="text/css"><![CDATA[
.node, .edge {opacity: 0.7;}
.node.selected, .edge.selected {opacity: 1;}
.edge:hover path { stroke: red; }
.edge:hover polygon { stroke: red; fill: red; }
]]></style>
<script type="application/ecmascript" xlink:href="svg.min.js"/>
<svg id="graph" class="graph">
<g id="graph0" class="graph" transform="scale(1 1) rotate(0) translate(4 264)">
<title>main</title>
<!-- Node1 -->
<g id="Node000001" class="node">
<title>Node1</title>
<g id="a_Node000001"><a xlink:title=" ">
<polygon fill="#999999" stroke="#666666" points="37,-134 0,-134 0,-114 37,-114 37,-134"/>
<text text-anchor="middle" x="18.5" y="-120.5" font-family="Helvetica,sans-Serif" font-size="10.00">main</text>
</a>
</g>
</g>
<!-- Node2 -->
<g id="Node000002" class="node">
<title>Node2</title>
<g id="a_Node000002"><a xlink:href="client_8c.html#a21630e3889103e8d3d340de618552d8d" target="_top" xlink:title=" ">
<polygon fill="white" stroke="#666666" points="189.88,-260 83.88,-260 83.88,-228 189.88,-228 189.88,-260"/>
<text text-anchor="start" x="91.88" y="-246.5" font-family="Helvetica,sans-Serif" font-size="10.00">connect_socket_and</text>
<text text-anchor="middle" x="136.88" y="-234.5" font-family="Helvetica,sans-Serif" font-size="10.00">_addrstruct</text>
</a>
</g>
</g>
<!-- Node1&#45;&gt;Node2 -->
<g id="edge1_Node000001_Node000002" class="edge">
<title>Node1&#45;&gt;Node2</title>
<g id="a_edge1_Node000001_Node000002"><a xlink:title=" ">
<path fill="none" stroke="#63b8ff" d="M22.73,-134.36C29.22,-153.61 45.63,-195.09 73,-219 73.93,-219.81 74.89,-220.6 75.87,-221.36"/>
<polygon fill="#63b8ff" stroke="#63b8ff" points="73.78,-224.17 84.05,-226.77 77.64,-218.33 73.78,-224.17"/>
</a>
</g>
</g>
<!-- Node4 -->
<g id="Node000004" class="node">
<title>Node4</title>
<g id="a_Node000004"><a xlink:href="client_8c.html#ab536f93bd2337174415004500c3b0a5d" target="_top" xlink:title=" ">
<polygon fill="white" stroke="#666666" points="175.62,-210 98.12,-210 98.12,-190 175.62,-190 175.62,-210"/>
<text text-anchor="middle" x="136.88" y="-196.5" font-family="Helvetica,sans-Serif" font-size="10.00">create_socket</text>
</a>
</g>
</g>
<!-- Node1&#45;&gt;Node4 -->
<g id="edge3_Node000001_Node000004" class="edge">
<title>Node1&#45;&gt;Node4</title>
<g id="a_edge3_Node000001_Node000004"><a xlink:title=" ">
<path fill="none" stroke="#63b8ff" d="M26.59,-134.41C35.83,-147.19 53.16,-168.69 73,-181 77.49,-183.78 82.41,-186.18 87.46,-188.24"/>
<polygon fill="#63b8ff" stroke="#63b8ff" points="85.9,-191.4 96.49,-191.5 88.27,-184.82 85.9,-191.4"/>
</a>
</g>
</g>
<!-- Node5 -->
<g id="Node000005" class="node">
<title>Node5</title>
<g id="a_Node000005"><a xlink:href="client_8c.html#a0294d7bfb25a6295953dab5a4eece1f5" target="_top" xlink:title=" ">
<polygon fill="white" stroke="#666666" points="184.62,-172 89.12,-172 89.12,-152 184.62,-152 184.62,-172"/>
<text text-anchor="middle" x="136.88" y="-158.5" font-family="Helvetica,sans-Serif" font-size="10.00">print_client_status</text>
</a>
</g>
</g>
<!-- Node1&#45;&gt;Node5 -->
<g id="edge4_Node000001_Node000005" class="edge">
<title>Node1&#45;&gt;Node5</title>
<g id="a_edge4_Node000001_Node000005"><a xlink:title=" ">
<path fill="none" stroke="#63b8ff" d="M37.26,-130.55C47.64,-134.31 61.01,-139.06 73,-143 78.35,-144.76 83.97,-146.54 89.56,-148.28"/>
<polygon fill="#63b8ff" stroke="#63b8ff" points="88.17,-151.51 98.76,-151.1 90.22,-144.82 88.17,-151.51"/>
</a>
</g>
</g>
<!-- Node6 -->
<g id="Node000006" class="node">
<title>Node6</title>
<g id="a_Node000006"><a xlink:href="client_8c.html#a6e884a54071880be1ad84f39be7e11af" target="_top" xlink:title=" ">
<polygon fill="white" stroke="#666666" points="166.25,-134 107.5,-134 107.5,-114 166.25,-114 166.25,-134"/>
<text text-anchor="middle" x="136.88" y="-120.5" font-family="Helvetica,sans-Serif" font-size="10.00">printmenu</text>
</a>
</g>
</g>
<!-- Node1&#45;&gt;Node6 -->
<g id="edge5_Node000001_Node000006" class="edge">
<title>Node1&#45;&gt;Node6</title>
<g id="a_edge5_Node000001_Node000006"><a xlink:title=" ">
<path fill="none" stroke="#63b8ff" d="M37.43,-124C52.99,-124 76.09,-124 96,-124"/>
<polygon fill="#63b8ff" stroke="#63b8ff" points="95.76,-127.5 105.76,-124 95.76,-120.5 95.76,-127.5"/>
</a>
</g>
</g>
<!-- Node7 -->
<g id="Node000007" class="node">
<title>Node7</title>
<g id="a_Node000007"><a xlink:href="client_8c.html#a299ed05c2ff0f97eebe387b18a2425a4" target="_top" xlink:title=" ">
<polygon fill="white" stroke="#666666" points="175.25,-96 98.5,-96 98.5,-76 175.25,-76 175.25,-96"/>
<text text-anchor="middle" x="136.88" y="-82.5" font-family="Helvetica,sans-Serif" font-size="10.00">receive_guard</text>
</a>
</g>
</g>
<!-- Node1&#45;&gt;Node7 -->
<g id="edge6_Node000001_Node000007" class="edge">
<title>Node1&#45;&gt;Node7</title>
<g id="a_edge6_Node000001_Node000007"><a xlink:title=" ">
<path fill="none" stroke="#63b8ff" d="M37.26,-117.45C47.64,-113.69 61.01,-108.94 73,-105 78.35,-103.24 83.97,-101.46 89.56,-99.72"/>
<polygon fill="#63b8ff" stroke="#63b8ff" points="90.22,-103.18 98.76,-96.9 88.17,-96.49 90.22,-103.18"/>
</a>
</g>
</g>
<!-- Node9 -->
<g id="Node000009" class="node">
<title>Node9</title>
<g id="a_Node000009"><a xlink:href="client_8c.html#acc8f733e319953101a00aacbbba6a402" target="_top" xlink:title=" ">
<polygon fill="white" stroke="#666666" points="200.75,-58 73,-58 73,-38 200.75,-38 200.75,-58"/>
<text text-anchor="middle" x="136.88" y="-44.5" font-family="Helvetica,sans-Serif" font-size="10.00">send_message_to_server</text>
</a>
</g>
</g>
<!-- Node1&#45;&gt;Node9 -->
<g id="edge8_Node000001_Node000009" class="edge">
<title>Node1&#45;&gt;Node9</title>
<g id="a_edge8_Node000001_Node000009"><a xlink:title=" ">
<path fill="none" stroke="#63b8ff" d="M26.59,-113.59C35.83,-100.81 53.16,-79.31 73,-67 75.42,-65.5 77.96,-64.11 80.58,-62.83"/>
<polygon fill="#63b8ff" stroke="#63b8ff" points="81.77,-66.13 89.58,-58.98 79.01,-59.69 81.77,-66.13"/>
</a>
</g>
</g>
<!-- Node10 -->
<g id="Node000010" class="node">
<title>Node10</title>
<g id="a_Node000010"><a xlink:href="client_8c.html#a59252fdc79911f6e54b8819eaea23312" target="_top" xlink:title=" ">
<polygon fill="white" stroke="#666666" points="186.5,-20 87.25,-20 87.25,0 186.5,0 186.5,-20"/>
<text text-anchor="middle" x="136.88" y="-6.5" font-family="Helvetica,sans-Serif" font-size="10.00">set_address_struct</text>
</a>
</g>
</g>
<!-- Node1&#45;&gt;Node10 -->
<g id="edge9_Node000001_Node000010" class="edge">
<title>Node1&#45;&gt;Node10</title>
<g id="a_edge9_Node000001_Node000010"><a xlink:title=" ">
<path fill="none" stroke="#63b8ff" d="M22.45,-113.72C28.56,-94.24 44.49,-51.85 73,-29 74.33,-27.93 75.73,-26.92 77.17,-25.97"/>
<polygon fill="#63b8ff" stroke="#63b8ff" points="78.83,-29.05 85.93,-21.19 75.48,-22.9 78.83,-29.05"/>
</a>
</g>
</g>
<!-- Node3 -->
<g id="Node000003" class="node">
<title>Node3</title>
<g id="a_Node000003"><a xlink:href="client_8c.html#a0af4333b29692fff66e8b98b5b317a4e" target="_top" xlink:title=" ">
<polygon fill="white" stroke="#666666" points="348.75,-254 236.75,-254 236.75,-234 348.75,-234 348.75,-254"/>
<text text-anchor="middle" x="292.75" y="-240.5" font-family="Helvetica,sans-Serif" font-size="10.00">send_name_to_server</text>
</a>
</g>
</g>
<!-- Node2&#45;&gt;Node3 -->
<g id="edge2_Node000002_Node000003" class="edge">
<title>Node2&#45;&gt;Node3</title>
<g id="a_edge2_Node000002_Node000003"><a xlink:title=" ">
<path fill="none" stroke="#63b8ff" d="M189.97,-244C201.15,-244 213.12,-244 224.77,-244"/>
<polygon fill="#63b8ff" stroke="#63b8ff" points="224.77,-247.5 234.77,-244 224.77,-240.5 224.77,-247.5"/>
</a>
</g>
</g>
<!-- Node8 -->
<g id="Node000008" class="node">
<title>Node8</title>
<g id="a_Node000008"><a xlink:href="client_8c.html#a67c29bf5bd891cd591c531d7940439ca" target="_top" xlink:title=" ">
<polygon fill="white" stroke="#666666" points="345,-96 240.5,-96 240.5,-76 345,-76 345,-96"/>
<text text-anchor="middle" x="292.75" y="-82.5" font-family="Helvetica,sans-Serif" font-size="10.00">receive_from_server</text>
</a>
</g>
</g>
<!-- Node7&#45;&gt;Node8 -->
<g id="edge7_Node000007_Node000008" class="edge">
<title>Node7&#45;&gt;Node8</title>
<g id="a_edge7_Node000007_Node000008"><a xlink:title=" ">
<path fill="none" stroke="#63b8ff" d="M175.52,-86C191.58,-86 210.76,-86 228.87,-86"/>
<polygon fill="#63b8ff" stroke="#63b8ff" points="228.75,-89.5 238.75,-86 228.75,-82.5 228.75,-89.5"/>
</a>
</g>
</g>
</g>
</svg>
</svg>

<style type='text/css'>
<![CDATA[
[data-mouse-over-selected='false'] { opacity: 0.7; }
[data-mouse-over-selected='true']  { opacity: 1.0; }
]]>
</style>
<script type="application/ecmascript"><![CDATA[
document.addEventListener('DOMContentLoaded', (event) => {
  highlightEdges();
  highlightAdjacentNodes();
});
]]></script>
</svg>
