<?xml version="1.0" encoding="UTF-8" standalone="no"?>
<!DOCTYPE svg PUBLIC "-//W3C//DTD SVG 1.1//EN"
 "http://www.w3.org/Graphics/SVG/1.1/DTD/svg11.dtd">
<!-- Generated by graphviz version 12.1.2 (0)
 -->
<!-- Title: main Pages: 1 -->
<svg width="596pt" height="294pt"
 viewBox="0.00 0.00 595.75 294.00" xmlns="http://www.w3.org/2000/svg" xmlns:xlink="http://www.w3.org/1999/xlink">
<g id="graph0" class="graph" transform="scale(1 1) rotate(0) translate(4 290)">
<title>main</title>
<!-- Node1 -->
<g id="Node000001" class="node">
<title>Node1</title>
<g id="a_Node000001"><a xlink:title=" ">
<polygon fill="#999999" stroke="#666666" points="37,-153 0,-153 0,-133 37,-133 37,-153"/>
<text text-anchor="middle" x="18.5" y="-139.5" font-family="Helvetica,sans-Serif" font-size="10.00">main</text>
</a>
</g>
</g>
<!-- Node2 -->
<g id="Node000002" class="node">
<title>Node2</title>
<g id="a_Node000002"><a xlink:href="server_8c.html#aa63a0039312dd8d0bb8dca972264f1c0" target="_top" xlink:title=" ">
<polygon fill="white" stroke="#666666" points="205.25,-286 79,-286 79,-266 205.25,-266 205.25,-286"/>
<text text-anchor="middle" x="142.12" y="-272.5" font-family="Helvetica,sans-Serif" font-size="10.00">accept_client_connection</text>
</a>
</g>
</g>
<!-- Node1&#45;&gt;Node2 -->
<g id="edge1_Node000001_Node000002" class="edge">
<title>Node1&#45;&gt;Node2</title>
<g id="a_edge1_Node000001_Node000002"><a xlink:title=" ">
<path fill="none" stroke="#63b8ff" d="M21.34,-153.26C25.88,-175.6 39.78,-228.91 73,-257 74.26,-258.07 75.58,-259.07 76.94,-260.02"/>
<polygon fill="#63b8ff" stroke="#63b8ff" points="74.77,-262.81 85.18,-264.76 78.25,-256.74 74.77,-262.81"/>
</a>
</g>
</g>
<!-- Node6 -->
<g id="Node000006" class="node">
<title>Node6</title>
<g id="a_Node000006"><a xlink:href="server_8c.html#a24aae3cb80d30976c5fd5ea565e0b240" target="_top" xlink:title=" ">
<polygon fill="white" stroke="#666666" points="211.25,-248 73,-248 73,-228 211.25,-228 211.25,-248"/>
<text text-anchor="middle" x="142.12" y="-234.5" font-family="Helvetica,sans-Serif" font-size="10.00">bind_socket_and_addrstruct</text>
</a>
</g>
</g>
<!-- Node1&#45;&gt;Node6 -->
<g id="edge5_Node000001_Node000006" class="edge">
<title>Node1&#45;&gt;Node6</title>
<g id="a_edge5_Node000001_Node000006"><a xlink:title=" ">
<path fill="none" stroke="#63b8ff" d="M23.94,-153.32C31.53,-169.76 48.61,-201.78 73,-219 74.92,-220.36 76.93,-221.61 79.02,-222.78"/>
<polygon fill="#63b8ff" stroke="#63b8ff" points="77.27,-225.83 87.81,-226.98 80.29,-219.51 77.27,-225.83"/>
</a>
</g>
</g>
<!-- Node7 -->
<g id="Node000007" class="node">
<title>Node7</title>
<g id="a_Node000007"><a xlink:href="client_8c.html#ab536f93bd2337174415004500c3b0a5d" target="_top" xlink:title=" ">
<polygon fill="white" stroke="#666666" points="180.88,-210 103.38,-210 103.38,-190 180.88,-190 180.88,-210"/>
<text text-anchor="middle" x="142.12" y="-196.5" font-family="Helvetica,sans-Serif" font-size="10.00">create_socket</text>
</a>
</g>
</g>
<!-- Node1&#45;&gt;Node7 -->
<g id="edge6_Node000001_Node000007" class="edge">
<title>Node1&#45;&gt;Node7</title>
<g id="a_edge6_Node000001_Node000007"><a xlink:title=" ">
<path fill="none" stroke="#63b8ff" d="M31.49,-153.37C41.86,-161.86 57.57,-173.65 73,-181 79.04,-183.88 85.59,-186.39 92.16,-188.56"/>
<polygon fill="#63b8ff" stroke="#63b8ff" points="91.12,-191.91 101.71,-191.46 93.16,-185.21 91.12,-191.91"/>
</a>
</g>
</g>
<!-- Node8 -->
<g id="Node000008" class="node">
<title>Node8</title>
<g id="a_Node000008"><a xlink:href="server_8c.html#aad3745fe281e8484216735b5775b4908" target="_top" xlink:title=" ">
<polygon fill="white" stroke="#666666" points="188,-172 96.25,-172 96.25,-152 188,-152 188,-172"/>
<text text-anchor="middle" x="142.12" y="-158.5" font-family="Helvetica,sans-Serif" font-size="10.00">disconnect_client</text>
</a>
</g>
</g>
<!-- Node1&#45;&gt;Node8 -->
<g id="edge7_Node000001_Node000008" class="edge">
<title>Node1&#45;&gt;Node8</title>
<g id="a_edge7_Node000001_Node000008"><a xlink:title=" ">
<path fill="none" stroke="#63b8ff" d="M37.45,-145.8C50.02,-147.77 67.57,-150.51 84.66,-153.18"/>
<polygon fill="#63b8ff" stroke="#63b8ff" points="83.86,-156.6 94.28,-154.68 84.94,-149.68 83.86,-156.6"/>
</a>
</g>
</g>
<!-- Node10 -->
<g id="Node000010" class="node">
<title>Node10</title>
<g id="a_Node000010"><a xlink:href="server_8c.html#a3a307c3e9f4fc00e221b137dda0abf83" target="_top" xlink:title=" ">
<polygon fill="white" stroke="#666666" points="179,-134 105.25,-134 105.25,-114 179,-114 179,-134"/>
<text text-anchor="middle" x="142.12" y="-120.5" font-family="Helvetica,sans-Serif" font-size="10.00">listen_socket</text>
</a>
</g>
</g>
<!-- Node1&#45;&gt;Node10 -->
<g id="edge9_Node000001_Node000010" class="edge">
<title>Node1&#45;&gt;Node10</title>
<g id="a_edge9_Node000001_Node000010"><a xlink:title=" ">
<path fill="none" stroke="#63b8ff" d="M37.45,-140.2C52.25,-137.88 73.95,-134.49 93.67,-131.41"/>
<polygon fill="#63b8ff" stroke="#63b8ff" points="94.16,-134.88 103.5,-129.88 93.08,-127.96 94.16,-134.88"/>
</a>
</g>
</g>
<!-- Node11 -->
<g id="Node000011" class="node">
<title>Node11</title>
<g id="a_Node000011"><a xlink:href="server_8c.html#a31e25c52df6e29058fef3db05c8fb65a" target="_top" xlink:title=" ">
<polygon fill="white" stroke="#666666" points="191.75,-96 92.5,-96 92.5,-76 191.75,-76 191.75,-96"/>
<text text-anchor="middle" x="142.12" y="-82.5" font-family="Helvetica,sans-Serif" font-size="10.00">print_server_status</text>
</a>
</g>
</g>
<!-- Node1&#45;&gt;Node11 -->
<g id="edge10_Node000001_Node000011" class="edge">
<title>Node1&#45;&gt;Node11</title>
<g id="a_edge10_Node000001_Node000011"><a xlink:title=" ">
<path fill="none" stroke="#63b8ff" d="M31.49,-132.63C41.86,-124.14 57.57,-112.35 73,-105 76.71,-103.23 80.61,-101.6 84.6,-100.1"/>
<polygon fill="#63b8ff" stroke="#63b8ff" points="85.5,-103.49 93.82,-96.93 83.23,-96.87 85.5,-103.49"/>
</a>
</g>
</g>
<!-- Node12 -->
<g id="Node000012" class="node">
<title>Node12</title>
<g id="a_Node000012"><a xlink:href="client_8c.html#a6e884a54071880be1ad84f39be7e11af" target="_top" xlink:title=" ">
<polygon fill="white" stroke="#666666" points="171.5,-58 112.75,-58 112.75,-38 171.5,-38 171.5,-58"/>
<text text-anchor="middle" x="142.12" y="-44.5" font-family="Helvetica,sans-Serif" font-size="10.00">printmenu</text>
</a>
</g>
</g>
<!-- Node1&#45;&gt;Node12 -->
<g id="edge11_Node000001_Node000012" class="edge">
<title>Node1&#45;&gt;Node12</title>
<g id="a_edge11_Node000001_Node000012"><a xlink:title=" ">
<path fill="none" stroke="#63b8ff" d="M23.94,-132.68C31.53,-116.24 48.61,-84.22 73,-67 81.38,-61.08 91.55,-57 101.44,-54.19"/>
<polygon fill="#63b8ff" stroke="#63b8ff" points="102.03,-57.65 110.92,-51.89 100.37,-50.85 102.03,-57.65"/>
</a>
</g>
</g>
<!-- Node13 -->
<g id="Node000013" class="node">
<title>Node13</title>
<g id="a_Node000013"><a xlink:href="client_8c.html#a59252fdc79911f6e54b8819eaea23312" target="_top" xlink:title=" ">
<polygon fill="white" stroke="#666666" points="191.75,-20 92.5,-20 92.5,0 191.75,0 191.75,-20"/>
<text text-anchor="middle" x="142.12" y="-6.5" font-family="Helvetica,sans-Serif" font-size="10.00">set_address_struct</text>
</a>
</g>
</g>
<!-- Node1&#45;&gt;Node13 -->
<g id="edge12_Node000001_Node000013" class="edge">
<title>Node1&#45;&gt;Node13</title>
<g id="a_edge12_Node000001_Node000013"><a xlink:title=" ">
<path fill="none" stroke="#63b8ff" d="M21.34,-132.74C25.88,-110.4 39.78,-57.09 73,-29 75.68,-26.73 78.61,-24.74 81.7,-22.98"/>
<polygon fill="#63b8ff" stroke="#63b8ff" points="83.09,-26.19 90.64,-18.77 80.11,-19.86 83.09,-26.19"/>
</a>
</g>
</g>
<!-- Node3 -->
<g id="Node000003" class="node">
<title>Node3</title>
<g id="a_Node000003"><a xlink:href="server_8c.html#a47ee33e275bfec2a3709e4c72894eb5d" target="_top" xlink:title=" ">
<polygon fill="white" stroke="#666666" points="328.12,-286 253.62,-286 253.62,-266 328.12,-266 328.12,-286"/>
<text text-anchor="middle" x="290.88" y="-272.5" font-family="Helvetica,sans-Serif" font-size="10.00">accept_guard</text>
</a>
</g>
</g>
<!-- Node2&#45;&gt;Node3 -->
<g id="edge2_Node000002_Node000003" class="edge">
<title>Node2&#45;&gt;Node3</title>
<g id="a_edge2_Node000002_Node000003"><a xlink:title=" ">
<path fill="none" stroke="#63b8ff" d="M205.36,-276C217.66,-276 230.4,-276 242.13,-276"/>
<polygon fill="#63b8ff" stroke="#63b8ff" points="241.96,-279.5 251.96,-276 241.96,-272.5 241.96,-279.5"/>
</a>
</g>
</g>
<!-- Node4 -->
<g id="Node000004" class="node">
<title>Node4</title>
<g id="a_Node000004"><a xlink:href="client_8c.html#a299ed05c2ff0f97eebe387b18a2425a4" target="_top" xlink:title=" ">
<polygon fill="white" stroke="#666666" points="447.25,-286 370.5,-286 370.5,-266 447.25,-266 447.25,-286"/>
<text text-anchor="middle" x="408.88" y="-272.5" font-family="Helvetica,sans-Serif" font-size="10.00">receive_guard</text>
</a>
</g>
</g>
<!-- Node3&#45;&gt;Node4 -->
<g id="edge3_Node000003_Node000004" class="edge">
<title>Node3&#45;&gt;Node4</title>
<g id="a_edge3_Node000003_Node000004"><a xlink:title=" ">
<path fill="none" stroke="#63b8ff" d="M328.58,-276C338.22,-276 348.78,-276 358.96,-276"/>
<polygon fill="#63b8ff" stroke="#63b8ff" points="358.7,-279.5 368.7,-276 358.7,-272.5 358.7,-279.5"/>
</a>
</g>
</g>
<!-- Node5 -->
<g id="Node000005" class="node">
<title>Node5</title>
<g id="a_Node000005"><a xlink:href="client_8c.html#a67c29bf5bd891cd591c531d7940439ca" target="_top" xlink:title=" ">
<polygon fill="white" stroke="#666666" points="587.75,-286 483.25,-286 483.25,-266 587.75,-266 587.75,-286"/>
<text text-anchor="middle" x="535.5" y="-272.5" font-family="Helvetica,sans-Serif" font-size="10.00">receive_from_server</text>
</a>
</g>
</g>
<!-- Node4&#45;&gt;Node5 -->
<g id="edge4_Node000004_Node000005" class="edge">
<title>Node4&#45;&gt;Node5</title>
<g id="a_edge4_Node000004_Node000005"><a xlink:title=" ">
<path fill="none" stroke="#63b8ff" d="M447.6,-276C455.29,-276 463.57,-276 471.85,-276"/>
<polygon fill="#63b8ff" stroke="#63b8ff" points="471.59,-279.5 481.59,-276 471.59,-272.5 471.59,-279.5"/>
</a>
</g>
</g>
<!-- Node9 -->
<g id="Node000009" class="node">
<title>Node9</title>
<g id="a_Node000009"><a xlink:href="server_8c.html#a4fe8b764b24d2cba651f32472cf4a0fd" target="_top" xlink:title=" ">
<polygon fill="white" stroke="#666666" points="334.5,-172 247.25,-172 247.25,-152 334.5,-152 334.5,-172"/>
<text text-anchor="middle" x="290.88" y="-158.5" font-family="Helvetica,sans-Serif" font-size="10.00">get_client_by_fd</text>
</a>
</g>
</g>
<!-- Node8&#45;&gt;Node9 -->
<g id="edge8_Node000008_Node000009" class="edge">
<title>Node8&#45;&gt;Node9</title>
<g id="a_edge8_Node000008_Node000009"><a xlink:title=" ">
<path fill="none" stroke="#63b8ff" d="M188.35,-162C203.4,-162 220.3,-162 235.94,-162"/>
<polygon fill="#63b8ff" stroke="#63b8ff" points="235.54,-165.5 245.54,-162 235.54,-158.5 235.54,-165.5"/>
</a>
</g>
</g>
</g>
</svg>
