<?xml version="1.0" encoding="UTF-8" standalone="no"?>
<!DOCTYPE svg PUBLIC "-//W3C//DTD SVG 1.1//EN"
 "http://www.w3.org/Graphics/SVG/1.1/DTD/svg11.dtd">
<!-- Generated by graphviz version 12.1.2 (0)
 -->
<!-- Title: receive_guard Pages: 1 -->
<svg width="509pt" height="104pt"
 viewBox="0.00 0.00 509.25 104.00" xmlns="http://www.w3.org/2000/svg" xmlns:xlink="http://www.w3.org/1999/xlink">
<g id="graph0" class="graph" transform="scale(1 1) rotate(0) translate(4 100)">
<title>receive_guard</title>
<!-- Node1 -->
<g id="Node000001" class="node">
<title>Node1</title>
<g id="a_Node000001"><a xlink:title=" ">
<polygon fill="#999999" stroke="#666666" points="76.75,-58 0,-58 0,-38 76.75,-38 76.75,-58"/>
<text text-anchor="middle" x="38.38" y="-44.5" font-family="Helvetica,sans-Serif" font-size="10.00">receive_guard</text>
</a>
</g>
</g>
<!-- Node2 -->
<g id="Node000002" class="node">
<title>Node2</title>
<g id="a_Node000002"><a xlink:href="server_8c.html#ab454f2b787839745f5a669ffd9217a61" target="_top" xlink:title=" ">
<polygon fill="white" stroke="#666666" points="213.5,-58 112.75,-58 112.75,-38 213.5,-38 213.5,-58"/>
<text text-anchor="middle" x="163.12" y="-44.5" font-family="Helvetica,sans-Serif" font-size="10.00">receive_from_client</text>
</a>
</g>
</g>
<!-- Node1&#45;&gt;Node2 -->
<g id="edge1_Node000001_Node000002" class="edge">
<title>Node1&#45;&gt;Node2</title>
<g id="a_edge1_Node000001_Node000002"><a xlink:title=" ">
<path fill="none" stroke="#63b8ff" d="M77.21,-48C84.77,-48 92.9,-48 101.02,-48"/>
<polygon fill="#63b8ff" stroke="#63b8ff" points="100.92,-51.5 110.92,-48 100.92,-44.5 100.92,-51.5"/>
</a>
</g>
</g>
<!-- Node3 -->
<g id="Node000003" class="node">
<title>Node3</title>
<g id="a_Node000003"><a xlink:href="server_8c.html#aad3745fe281e8484216735b5775b4908" target="_top" xlink:title=" ">
<polygon fill="white" stroke="#666666" points="341.25,-96 249.5,-96 249.5,-76 341.25,-76 341.25,-96"/>
<text text-anchor="middle" x="295.38" y="-82.5" font-family="Helvetica,sans-Serif" font-size="10.00">disconnect_client</text>
</a>
</g>
</g>
<!-- Node2&#45;&gt;Node3 -->
<g id="edge2_Node000002_Node000003" class="edge">
<title>Node2&#45;&gt;Node3</title>
<g id="a_edge2_Node000002_Node000003"><a xlink:title=" ">
<path fill="none" stroke="#63b8ff" d="M200.06,-58.48C214.72,-62.76 231.88,-67.77 247.5,-72.33"/>
<polygon fill="#63b8ff" stroke="#63b8ff" points="246.52,-75.69 257.1,-75.13 248.48,-68.97 246.52,-75.69"/>
</a>
</g>
</g>
<!-- Node4 -->
<g id="Node000004" class="node">
<title>Node4</title>
<g id="a_Node000004"><a xlink:href="server_8c.html#a4fe8b764b24d2cba651f32472cf4a0fd" target="_top" xlink:title=" ">
<polygon fill="white" stroke="#666666" points="482.88,-77 395.62,-77 395.62,-57 482.88,-57 482.88,-77"/>
<text text-anchor="middle" x="439.25" y="-63.5" font-family="Helvetica,sans-Serif" font-size="10.00">get_client_by_fd</text>
</a>
</g>
</g>
<!-- Node2&#45;&gt;Node4 -->
<g id="edge6_Node000002_Node000004" class="edge">
<title>Node2&#45;&gt;Node4</title>
<g id="a_edge6_Node000002_Node000004"><a xlink:title=" ">
<path fill="none" stroke="#63b8ff" d="M213.77,-51.44C261.76,-54.77 334.3,-59.79 383.84,-63.23"/>
<polygon fill="#63b8ff" stroke="#63b8ff" points="383.56,-66.72 393.78,-63.92 384.04,-59.73 383.56,-66.72"/>
</a>
</g>
</g>
<!-- Node5 -->
<g id="Node000005" class="node">
<title>Node5</title>
<g id="a_Node000005"><a xlink:href="server_8c.html#ac357019e5afaf8912686d538415d1e19" target="_top" xlink:title=" ">
<polygon fill="white" stroke="#666666" points="341.25,-20 249.5,-20 249.5,0 341.25,0 341.25,-20"/>
<text text-anchor="middle" x="295.38" y="-6.5" font-family="Helvetica,sans-Serif" font-size="10.00">forward_all_client</text>
</a>
</g>
</g>
<!-- Node2&#45;&gt;Node5 -->
<g id="edge4_Node000002_Node000005" class="edge">
<title>Node2&#45;&gt;Node5</title>
<g id="a_edge4_Node000002_Node000005"><a xlink:title=" ">
<path fill="none" stroke="#63b8ff" d="M200.06,-37.52C214.72,-33.24 231.88,-28.23 247.5,-23.67"/>
<polygon fill="#63b8ff" stroke="#63b8ff" points="248.48,-27.03 257.1,-20.87 246.52,-20.31 248.48,-27.03"/>
</a>
</g>
</g>
<!-- Node3&#45;&gt;Node4 -->
<g id="edge3_Node000003_Node000004" class="edge">
<title>Node3&#45;&gt;Node4</title>
<g id="a_edge3_Node000003_Node000004"><a xlink:title=" ">
<path fill="none" stroke="#63b8ff" d="M341.66,-79.94C355.22,-78.12 370.23,-76.11 384.3,-74.23"/>
<polygon fill="#63b8ff" stroke="#63b8ff" points="384.38,-77.75 393.83,-72.95 383.45,-70.81 384.38,-77.75"/>
</a>
</g>
</g>
<!-- Node6 -->
<g id="Node000006" class="node">
<title>Node6</title>
<g id="a_Node000006"><a xlink:href="server_8c.html#aeef230f80715d46d5f2fab3c48054946" target="_top" xlink:title=" ">
<polygon fill="white" stroke="#666666" points="501.25,-20 377.25,-20 377.25,0 501.25,0 501.25,-20"/>
<text text-anchor="middle" x="439.25" y="-6.5" font-family="Helvetica,sans-Serif" font-size="10.00">send_message_to_client</text>
</a>
</g>
</g>
<!-- Node5&#45;&gt;Node6 -->
<g id="edge5_Node000005_Node000006" class="edge">
<title>Node5&#45;&gt;Node6</title>
<g id="a_edge5_Node000005_Node000006"><a xlink:title=" ">
<path fill="none" stroke="#63b8ff" d="M341.66,-10C349.26,-10 357.32,-10 365.42,-10"/>
<polygon fill="#63b8ff" stroke="#63b8ff" points="365.33,-13.5 375.33,-10 365.33,-6.5 365.33,-13.5"/>
</a>
</g>
</g>
</g>
</svg>
