<?xml version="1.0" encoding="UTF-8" standalone="no"?>
<!DOCTYPE svg PUBLIC "-//W3C//DTD SVG 1.1//EN"
 "http://www.w3.org/Graphics/SVG/1.1/DTD/svg11.dtd">
<!-- Generated by graphviz version 12.1.2 (0)
 -->
<!-- Title: receive_from_client Pages: 1 -->
<svg width="397pt" height="104pt"
 viewBox="0.00 0.00 396.50 104.00" xmlns="http://www.w3.org/2000/svg" xmlns:xlink="http://www.w3.org/1999/xlink">

<svg id="main" version="1.1" xmlns="http://www.w3.org/2000/svg" xmlns:xlink="http://www.w3.org/1999/xlink" xml:space="preserve">

<style type="text/css"><![CDATA[
.node, .edge {opacity: 0.7;}
.node.selected, .edge.selected {opacity: 1;}
.edge:hover path { stroke: red; }
.edge:hover polygon { stroke: red; fill: red; }
]]></style>
<script type="application/ecmascript" xlink:href="svg.min.js"/>
<svg id="graph" class="graph">
<g id="graph0" class="graph" transform="scale(1 1) rotate(0) translate(4 100)">
<title>receive_from_client</title>
<!-- Node1 -->
<g id="Node000001" class="node">
<title>Node1</title>
<g id="a_Node000001"><a xlink:title=" ">
<polygon fill="#999999" stroke="#666666" points="100.75,-58 0,-58 0,-38 100.75,-38 100.75,-58"/>
<text text-anchor="middle" x="50.38" y="-44.5" font-family="Helvetica,sans-Serif" font-size="10.00">receive_from_client</text>
</a>
</g>
</g>
<!-- Node2 -->
<g id="Node000002" class="node">
<title>Node2</title>
<g id="a_Node000002"><a xlink:href="server_8c.html#aad3745fe281e8484216735b5775b4908" target="_top" xlink:title=" ">
<polygon fill="white" stroke="#666666" points="228.5,-96 136.75,-96 136.75,-76 228.5,-76 228.5,-96"/>
<text text-anchor="middle" x="182.62" y="-82.5" font-family="Helvetica,sans-Serif" font-size="10.00">disconnect_client</text>
</a>
</g>
</g>
<!-- Node1&#45;&gt;Node2 -->
<g id="edge1_Node000001_Node000002" class="edge">
<title>Node1&#45;&gt;Node2</title>
<g id="a_edge1_Node000001_Node000002"><a xlink:title=" ">
<path fill="none" stroke="#63b8ff" d="M87.31,-58.48C101.97,-62.76 119.13,-67.77 134.75,-72.33"/>
<polygon fill="#63b8ff" stroke="#63b8ff" points="133.77,-75.69 144.35,-75.13 135.73,-68.97 133.77,-75.69"/>
</a>
</g>
</g>
<!-- Node3 -->
<g id="Node000003" class="node">
<title>Node3</title>
<g id="a_Node000003"><a xlink:href="server_8c.html#a4fe8b764b24d2cba651f32472cf4a0fd" target="_top" xlink:title=" ">
<polygon fill="white" stroke="#666666" points="370.12,-77 282.88,-77 282.88,-57 370.12,-57 370.12,-77"/>
<text text-anchor="middle" x="326.5" y="-63.5" font-family="Helvetica,sans-Serif" font-size="10.00">get_client_by_fd</text>
</a>
</g>
</g>
<!-- Node1&#45;&gt;Node3 -->
<g id="edge5_Node000001_Node000003" class="edge">
<title>Node1&#45;&gt;Node3</title>
<g id="a_edge5_Node000001_Node000003"><a xlink:title=" ">
<path fill="none" stroke="#63b8ff" d="M101.02,-51.44C149.01,-54.77 221.55,-59.79 271.09,-63.23"/>
<polygon fill="#63b8ff" stroke="#63b8ff" points="270.81,-66.72 281.03,-63.92 271.29,-59.73 270.81,-66.72"/>
</a>
</g>
</g>
<!-- Node4 -->
<g id="Node000004" class="node">
<title>Node4</title>
<g id="a_Node000004"><a xlink:href="server_8c.html#ac357019e5afaf8912686d538415d1e19" target="_top" xlink:title=" ">
<polygon fill="white" stroke="#666666" points="228.5,-20 136.75,-20 136.75,0 228.5,0 228.5,-20"/>
<text text-anchor="middle" x="182.62" y="-6.5" font-family="Helvetica,sans-Serif" font-size="10.00">forward_all_client</text>
</a>
</g>
</g>
<!-- Node1&#45;&gt;Node4 -->
<g id="edge3_Node000001_Node000004" class="edge">
<title>Node1&#45;&gt;Node4</title>
<g id="a_edge3_Node000001_Node000004"><a xlink:title=" ">
<path fill="none" stroke="#63b8ff" d="M87.31,-37.52C101.97,-33.24 119.13,-28.23 134.75,-23.67"/>
<polygon fill="#63b8ff" stroke="#63b8ff" points="135.73,-27.03 144.35,-20.87 133.77,-20.31 135.73,-27.03"/>
</a>
</g>
</g>
<!-- Node2&#45;&gt;Node3 -->
<g id="edge2_Node000002_Node000003" class="edge">
<title>Node2&#45;&gt;Node3</title>
<g id="a_edge2_Node000002_Node000003"><a xlink:title=" ">
<path fill="none" stroke="#63b8ff" d="M228.91,-79.94C242.47,-78.12 257.48,-76.11 271.55,-74.23"/>
<polygon fill="#63b8ff" stroke="#63b8ff" points="271.63,-77.75 281.08,-72.95 270.7,-70.81 271.63,-77.75"/>
</a>
</g>
</g>
<!-- Node5 -->
<g id="Node000005" class="node">
<title>Node5</title>
<g id="a_Node000005"><a xlink:href="server_8c.html#aeef230f80715d46d5f2fab3c48054946" target="_top" xlink:title=" ">
<polygon fill="white" stroke="#666666" points="388.5,-20 264.5,-20 264.5,0 388.5,0 388.5,-20"/>
<text text-anchor="middle" x="326.5" y="-6.5" font-family="Helvetica,sans-Serif" font-size="10.00">send_message_to_client</text>
</a>
</g>
</g>
<!-- Node4&#45;&gt;Node5 -->
<g id="edge4_Node000004_Node000005" class="edge">
<title>Node4&#45;&gt;Node5</title>
<g id="a_edge4_Node000004_Node000005"><a xlink:title=" ">
<path fill="none" stroke="#63b8ff" d="M228.91,-10C236.51,-10 244.57,-10 252.67,-10"/>
<polygon fill="#63b8ff" stroke="#63b8ff" points="252.58,-13.5 262.58,-10 252.58,-6.5 252.58,-13.5"/>
</a>
</g>
</g>
</g>
</svg>
</svg>

<style type='text/css'>
<![CDATA[
[data-mouse-over-selected='false'] { opacity: 0.7; }
[data-mouse-over-selected='true']  { opacity: 1.0; }
]]>
</style>
<script type="application/ecmascript"><![CDATA[
document.addEventListener('DOMContentLoaded', (event) => {
  highlightEdges();
  highlightAdjacentNodes();
});
]]></script>
</svg>
