<?xml version="1.0" encoding="UTF-8" standalone="no"?>
<!DOCTYPE svg PUBLIC "-//W3C//DTD SVG 1.1//EN"
 "http://www.w3.org/Graphics/SVG/1.1/DTD/svg11.dtd">
<!-- Generated by graphviz version 12.1.2 (0)
 -->
<!-- Title: disconnect_client Pages: 1 -->
<svg width="349pt" height="66pt"
 viewBox="0.00 0.00 349.25 66.00" xmlns="http://www.w3.org/2000/svg" xmlns:xlink="http://www.w3.org/1999/xlink">
<g id="graph0" class="graph" transform="scale(1 1) rotate(0) translate(4 62)">
<title>disconnect_client</title>
<!-- Node1 -->
<g id="Node000001" class="node">
<title>Node1</title>
<g id="a_Node000001"><a xlink:title=" ">
<polygon fill="#999999" stroke="#666666" points="341.25,-39 249.5,-39 249.5,-19 341.25,-19 341.25,-39"/>
<text text-anchor="middle" x="295.38" y="-25.5" font-family="Helvetica,sans-Serif" font-size="10.00">disconnect_client</text>
</a>
</g>
</g>
<!-- Node2 -->
<g id="Node000002" class="node">
<title>Node2</title>
<g id="a_Node000002"><a xlink:href="server_2main_8c.html#ae66f6b31b5ad750f1fe042a706a4e3d4" target="_top" xlink:title=" ">
<polygon fill="white" stroke="#666666" points="181.62,-58 144.62,-58 144.62,-38 181.62,-38 181.62,-58"/>
<text text-anchor="middle" x="163.12" y="-44.5" font-family="Helvetica,sans-Serif" font-size="10.00">main</text>
</a>
</g>
</g>
<!-- Node1&#45;&gt;Node2 -->
<g id="edge1_Node000001_Node000002" class="edge">
<title>Node1&#45;&gt;Node2</title>
<g id="a_edge1_Node000001_Node000002"><a xlink:title=" ">
<path fill="none" stroke="#63b8ff" d="M237.87,-37.24C217.78,-40.17 196.59,-43.26 182.1,-45.38"/>
<polygon fill="#63b8ff" stroke="#63b8ff" points="238.3,-40.72 247.69,-35.81 237.29,-33.79 238.3,-40.72"/>
</a>
</g>
</g>
<!-- Node3 -->
<g id="Node000003" class="node">
<title>Node3</title>
<g id="a_Node000003"><a xlink:href="server_8c.html#ab454f2b787839745f5a669ffd9217a61" target="_top" xlink:title=" ">
<polygon fill="white" stroke="#666666" points="213.5,-20 112.75,-20 112.75,0 213.5,0 213.5,-20"/>
<text text-anchor="middle" x="163.12" y="-6.5" font-family="Helvetica,sans-Serif" font-size="10.00">receive_from_client</text>
</a>
</g>
</g>
<!-- Node1&#45;&gt;Node3 -->
<g id="edge2_Node000001_Node000003" class="edge">
<title>Node1&#45;&gt;Node3</title>
<g id="a_edge2_Node000001_Node000003"><a xlink:title=" ">
<path fill="none" stroke="#63b8ff" d="M237.94,-20.77C229.87,-19.59 221.61,-18.39 213.68,-17.23"/>
<polygon fill="#63b8ff" stroke="#63b8ff" points="237.29,-24.21 247.69,-22.19 238.3,-17.28 237.29,-24.21"/>
</a>
</g>
</g>
<!-- Node4 -->
<g id="Node000004" class="node">
<title>Node4</title>
<g id="a_Node000004"><a xlink:href="server_8c.html#a5bacfafc350eede139f1f6adb9c895ce" target="_top" xlink:title=" ">
<polygon fill="white" stroke="#666666" points="76.75,-20 0,-20 0,0 76.75,0 76.75,-20"/>
<text text-anchor="middle" x="38.38" y="-6.5" font-family="Helvetica,sans-Serif" font-size="10.00">receive_guard</text>
</a>
</g>
</g>
<!-- Node3&#45;&gt;Node4 -->
<g id="edge3_Node000003_Node000004" class="edge">
<title>Node3&#45;&gt;Node4</title>
<g id="a_edge3_Node000003_Node000004"><a xlink:title=" ">
<path fill="none" stroke="#63b8ff" d="M101.04,-10C92.86,-10 84.66,-10 77.05,-10"/>
<polygon fill="#63b8ff" stroke="#63b8ff" points="101.04,-13.5 111.04,-10 101.04,-6.5 101.04,-13.5"/>
</a>
</g>
</g>
</g>
</svg>
