<?xml version="1.0" encoding="UTF-8" standalone="no"?>
<!DOCTYPE svg PUBLIC "-//W3C//DTD SVG 1.1//EN"
 "http://www.w3.org/Graphics/SVG/1.1/DTD/svg11.dtd">
<!-- Generated by graphviz version 12.1.2 (0)
 -->
<!-- Title: get_client_by_fd Pages: 1 -->
<svg width="473pt" height="66pt"
 viewBox="0.00 0.00 472.50 66.00" xmlns="http://www.w3.org/2000/svg" xmlns:xlink="http://www.w3.org/1999/xlink">
<g id="graph0" class="graph" transform="scale(1 1) rotate(0) translate(4 62)">
<title>get_client_by_fd</title>
<!-- Node1 -->
<g id="Node000001" class="node">
<title>Node1</title>
<g id="a_Node000001"><a xlink:title=" ">
<polygon fill="#999999" stroke="#666666" points="464.5,-39 377.25,-39 377.25,-19 464.5,-19 464.5,-39"/>
<text text-anchor="middle" x="420.88" y="-25.5" font-family="Helvetica,sans-Serif" font-size="10.00">get_client_by_fd</text>
</a>
</g>
</g>
<!-- Node2 -->
<g id="Node000002" class="node">
<title>Node2</title>
<g id="a_Node000002"><a xlink:href="server_8c.html#aad3745fe281e8484216735b5775b4908" target="_top" xlink:title=" ">
<polygon fill="white" stroke="#666666" points="341.25,-58 249.5,-58 249.5,-38 341.25,-38 341.25,-58"/>
<text text-anchor="middle" x="295.38" y="-44.5" font-family="Helvetica,sans-Serif" font-size="10.00">disconnect_client</text>
</a>
</g>
</g>
<!-- Node1&#45;&gt;Node2 -->
<g id="edge1_Node000001_Node000002" class="edge">
<title>Node1&#45;&gt;Node2</title>
<g id="a_edge1_Node000001_Node000002"><a xlink:title=" ">
<path fill="none" stroke="#63b8ff" d="M365.81,-37.32C357.76,-38.56 349.52,-39.82 341.67,-41.03"/>
<polygon fill="#63b8ff" stroke="#63b8ff" points="366.18,-40.8 375.53,-35.82 365.12,-33.88 366.18,-40.8"/>
</a>
</g>
</g>
<!-- Node4 -->
<g id="Node000004" class="node">
<title>Node4</title>
<g id="a_Node000004"><a xlink:href="server_8c.html#ab454f2b787839745f5a669ffd9217a61" target="_top" xlink:title=" ">
<polygon fill="white" stroke="#666666" points="213.5,-20 112.75,-20 112.75,0 213.5,0 213.5,-20"/>
<text text-anchor="middle" x="163.12" y="-6.5" font-family="Helvetica,sans-Serif" font-size="10.00">receive_from_client</text>
</a>
</g>
</g>
<!-- Node1&#45;&gt;Node4 -->
<g id="edge5_Node000001_Node000004" class="edge">
<title>Node1&#45;&gt;Node4</title>
<g id="a_edge5_Node000001_Node000004"><a xlink:title=" ">
<path fill="none" stroke="#63b8ff" d="M365.51,-24.96C320.66,-21.63 257.54,-16.94 213.98,-13.7"/>
<polygon fill="#63b8ff" stroke="#63b8ff" points="365.04,-28.44 375.27,-25.69 365.56,-21.45 365.04,-28.44"/>
</a>
</g>
</g>
<!-- Node3 -->
<g id="Node000003" class="node">
<title>Node3</title>
<g id="a_Node000003"><a xlink:href="server_2main_8c.html#ae66f6b31b5ad750f1fe042a706a4e3d4" target="_top" xlink:title=" ">
<polygon fill="white" stroke="#666666" points="181.62,-58 144.62,-58 144.62,-38 181.62,-38 181.62,-58"/>
<text text-anchor="middle" x="163.12" y="-44.5" font-family="Helvetica,sans-Serif" font-size="10.00">main</text>
</a>
</g>
</g>
<!-- Node2&#45;&gt;Node3 -->
<g id="edge2_Node000002_Node000003" class="edge">
<title>Node2&#45;&gt;Node3</title>
<g id="a_edge2_Node000002_Node000003"><a xlink:title=" ">
<path fill="none" stroke="#63b8ff" d="M237.87,-48C217.78,-48 196.59,-48 182.1,-48"/>
<polygon fill="#63b8ff" stroke="#63b8ff" points="237.67,-51.5 247.67,-48 237.67,-44.5 237.67,-51.5"/>
</a>
</g>
</g>
<!-- Node2&#45;&gt;Node4 -->
<g id="edge3_Node000002_Node000004" class="edge">
<title>Node2&#45;&gt;Node4</title>
<g id="a_edge3_Node000002_Node000004"><a xlink:title=" ">
<path fill="none" stroke="#63b8ff" d="M247.83,-34.42C232.08,-29.82 214.74,-24.77 199.94,-20.45"/>
<polygon fill="#63b8ff" stroke="#63b8ff" points="246.41,-37.65 256.99,-37.09 248.37,-30.93 246.41,-37.65"/>
</a>
</g>
</g>
<!-- Node5 -->
<g id="Node000005" class="node">
<title>Node5</title>
<g id="a_Node000005"><a xlink:href="server_8c.html#a5bacfafc350eede139f1f6adb9c895ce" target="_top" xlink:title=" ">
<polygon fill="white" stroke="#666666" points="76.75,-20 0,-20 0,0 76.75,0 76.75,-20"/>
<text text-anchor="middle" x="38.38" y="-6.5" font-family="Helvetica,sans-Serif" font-size="10.00">receive_guard</text>
</a>
</g>
</g>
<!-- Node4&#45;&gt;Node5 -->
<g id="edge4_Node000004_Node000005" class="edge">
<title>Node4&#45;&gt;Node5</title>
<g id="a_edge4_Node000004_Node000005"><a xlink:title=" ">
<path fill="none" stroke="#63b8ff" d="M101.04,-10C92.86,-10 84.66,-10 77.05,-10"/>
<polygon fill="#63b8ff" stroke="#63b8ff" points="101.04,-13.5 111.04,-10 101.04,-6.5 101.04,-13.5"/>
</a>
</g>
</g>
</g>
</svg>
